<?xml version="1.0" standalone="no"?><!DOCTYPE svg PUBLIC "-//W3C//DTD SVG 1.1//EN" "http://www.w3.org/Graphics/SVG/1.1/DTD/svg11.dtd"><svg t="1764505497238" class="icon" viewBox="0 0 1024 1024" version="1.1" xmlns="http://www.w3.org/2000/svg" p-id="5587" xmlns:xlink="http://www.w3.org/1999/xlink" width="128" height="128"><path d="M849.8 510.4c3.5-4.5 6.8-9.1 10-13.6 57.1-80.4 71.2-154.7 39.8-209.3-31.4-54.6-102.8-79.6-201-70.6-5.7 0.5-11.4 1.2-17.2 1.9-2.2-5.4-4.6-10.7-6.9-15.9C633.4 113.3 576 64 513 64s-120.3 49.5-161.4 139c-2.4 5.1-4.6 10.4-6.9 15.7-5.7-0.7-11.4-1.4-17-1.9-98.1-9.2-169.6 15.8-201 70.4-31.5 54.6-17.4 128.9 39.6 209.3 3.2 4.5 6.6 9.1 10 13.6-3.5 4.5-6.8 9.1-10 13.6C109.2 604.1 95 678.4 126.5 733c27.2 47.3 84.4 72.4 162.9 72.4 12.2 0 24.9-0.6 38-1.8 5.7-0.5 11.4-1.2 17.2-1.9 2.2 5.4 4.6 10.7 6.9 15.9C392.6 907.2 450 956.5 513 956.5s120.3-49.3 161.5-138.9c2.4-5.1 4.6-10.4 6.9-15.7 5.7 0.7 11.4 1.4 17 1.9 13.3 1.2 26.1 1.9 38.4 1.9 78.4 0 135.4-25.1 162.7-72.2 31.5-54.6 17.4-128.9-39.6-209.3-3.3-4.7-6.6-9.2-10.1-13.8zM322.2 746.8c-73.6 6.8-127-8.6-146.4-42.3-19.4-33.7-6-87.6 36.9-147.8l1.5-2.1c25.4 27 54.5 53.2 86.7 78.1 5.4 40.2 13.6 78.4 24.2 113.8-0.9 0.1-1.9 0.2-2.9 0.3z m-28.4-194c-15.5-14-30-28.2-43.2-42.6 13.2-14.4 27.6-28.6 43.2-42.6-0.6 14.1-1 28.3-1 42.7 0 14.2 0.4 28.4 1 42.5z m7.2-165.1c-32.2 24.8-61.3 51.1-86.7 78-0.5-0.7-1.1-1.4-1.5-2.1-42.8-60.4-56.2-114.3-36.8-147.9 16.4-28.4 56.9-43.8 113.3-43.8 10.5 0 21.6 0.5 33.1 1.6 0.9 0.1 1.8 0.2 2.8 0.3-10.6 35.4-18.8 73.7-24.2 113.9z m358.3-46.2c-11.8-7.5-23.9-14.9-36.2-22-12.3-7.1-24.7-13.9-37.1-20.3 19.7-6.4 39.1-11.7 58-15.9 5.8 18.2 10.9 37.6 15.3 58.2zM513.1 121.1c38.6 0 79.4 39.9 110.6 108.5-35.9 8.5-73 20.5-110.4 35.8-37.5-15.4-74.7-27.5-110.6-36 31-68.5 71.8-108.3 110.4-108.3z m-131 162c19 4.2 38.4 9.5 58.2 16-12.4 6.4-24.8 13.2-37.2 20.3-12.4 7.1-24.5 14.5-36.3 22 4.4-20.6 9.5-40.1 15.3-58.3zM366.8 679c11.8 7.5 23.9 14.9 36.2 22 12.3 7.1 24.7 13.9 37.1 20.3-19.7 6.4-39.1 11.7-58 15.9-5.8-18.1-10.9-37.6-15.3-58.2z m146.3 220.5c-38.6 0-79.4-39.9-110.6-108.5 35.9-8.5 73-20.5 110.4-35.8 37.5 15.4 74.7 27.5 110.6 36-31.1 68.4-71.9 108.3-110.4 108.3zM644 737.4c-19-4.2-38.4-9.5-58.2-16 12.4-6.4 24.8-13.2 37.2-20.3 12.4-7.1 24.5-14.5 36.3-22-4.4 20.6-9.5 40.1-15.3 58.3z m27.5-135.5c-24.1 17.5-49.9 34.2-77 49.8-27 15.6-54.4 29.4-81.6 41.5-27.2-12.1-54.5-26-81.5-41.6-27-15.6-52.7-32.4-76.8-49.9-3.1-29-4.8-59.6-4.8-91.5 0-32 1.7-62.6 4.8-91.6 24.1-17.5 49.9-34.2 77-49.8 27-15.6 54.4-29.4 81.6-41.5 27.2 12.1 54.5 26 81.5 41.6 27 15.6 52.7 32.4 76.8 49.9 3.1 29 4.8 59.6 4.8 91.5 0 32-1.7 62.5-4.8 91.6z m32.4-328.2c11.4-1.1 22.4-1.6 32.8-1.6 56.6 0 97.2 15.4 113.6 43.9 19.4 33.7 6 87.6-36.9 147.8l-1.5 2.1c-25.4-27-54.5-53.2-86.7-78.1-5.4-40.2-13.6-78.4-24.2-113.8 1-0.1 1.9-0.2 2.9-0.3z m28.4 194.1c15.5 14 30 28.2 43.2 42.6-13.2 14.4-27.6 28.6-43.2 42.6 0.6-14.1 1-28.3 1-42.7 0-14.3-0.3-28.5-1-42.5z m117.8 237.1c-19.4 33.7-72.8 49-146.4 42.1-0.9-0.1-1.8-0.2-2.8-0.3 10.6-35.4 18.8-73.6 24.2-113.8 32.2-24.8 61.3-51.1 86.7-78 0.5 0.7 1.1 1.4 1.5 2.1 42.9 60.3 56.2 114.2 36.8 147.9z" fill="#3E75FF" p-id="5588"></path><path d="M482.4 501.6h-25.6V476c0-6.6-6.8-12-15.3-12-8.4 0-15.3 5.4-15.3 12v25.6h-25.6c-6.6 0-12 6.8-12 15.3 0 8.4 5.4 15.3 12 15.3h25.6v25.6c0 6.6 6.8 12 15.3 12 8.4 0 15.3-5.4 15.3-12v-25.6h25.6c6.6 0 12-6.8 12-15.3s-5.4-15.3-12-15.3zM629 501.6h-81.7c-6.6 0-12 6.8-12 15.3 0 8.4 5.4 15.3 12 15.3H629c6.6 0 12-6.8 12-15.3 0.1-8.5-5.3-15.3-12-15.3z" fill="#3E75FF" p-id="5589"></path></svg>